<svg viewBox="0 0 100 120" fill="none" xmlns="http://www.w3.org/2000/svg">
  <!-- Deep indigo base: full B silhouette -->
  <path d="M14,0 C14,0 76,0 76,28 C76,50 52,57 52,57 C76,64 82,82 82,100 C82,120 56,120 14,120 Z" fill="#3B45D4"/>
  <!-- Sky blue: upper bowl -->
  <path d="M14,0 C14,0 76,0 76,28 C76,50 52,57 44,57 C30,52 14,44 14,28 Z" fill="#6B8CF2"/>
  <!-- Peach: lower counter -->
  <path d="M14,60 C26,58 44,57 44,57 C40,70 36,88 38,104 C39,114 50,120 50,120 C28,120 14,112 14,96 Z" fill="#EDB896"/>
</svg>