<svg width="512" height="600" viewBox="0 0 512 600" fill="none" xmlns="http://www.w3.org/2000/svg">

  <!--
    BackHome Logo
    Stylised fluid "B" — sky blue leaf / deep indigo body / peach counter
  -->

  <!-- ─── TOP BULGE (sky blue leaf / upper bowl of B) ─── -->
  <path d="
    M 90 240
    C 90 100, 230 20, 310 60
    C 400 105, 430 185, 390 235
    C 355 278, 260 295, 180 285
    C 135 278, 90 262, 90 240
    Z
  " fill="#5B8FF5"/>

  <!-- ─── PEACH COUNTER (inner space / left side of B) ─── -->
  <path d="
    M 95 300
    C 95 300, 90 380, 100 440
    C 108 490, 125 530, 180 545
    C 220 555, 265 540, 265 540
    C 210 490, 180 430, 175 370
    C 170 320, 185 295, 200 288
    C 160 280, 120 295, 95 300
    Z
  " fill="#E8B898"/>

  <!-- ─── DEEP INDIGO BODY (main B shape, right & lower bowl) ─── -->
  <path d="
    M 200 288
    C 250 275, 360 260, 415 295
    C 470 330, 475 400, 440 450
    C 410 492, 360 525, 280 545
    C 265 540, 265 540, 265 540
    C 320 510, 365 475, 385 435
    C 405 390, 390 345, 355 318
    C 315 288, 248 288, 200 288
    Z
  " fill="#3A41CC"/>

  <!-- ─── OVERLAP / CONNECTOR (dark indigo wave between halves) ─── -->
  <path d="
    M 180 285
    C 195 282, 200 288, 200 288
    C 185 295, 170 320, 175 370
    C 145 345, 110 320, 90 300
    C 90 285, 135 278, 180 285
    Z
  " fill="#3A41CC"/>

</svg>
